# xmcd
#
# Track frame offsets: 
#        150
#        12932
#        38837
#        54130
#        71032
#        91872
#        110065
#        126192
#        147867
#        167947
#        187787
#        203390
#        221800
#        247045
#        273482
#        293005
#        315415
#
# Disc length: 4485 seconds
#
# Revision: 8
# Processed by: cddbd v1.5.2PL0 Copyright (c) Steve Scherf et al.
# Submitted via: ExactAudioCopy v0.99pb5
#
DISCID=f2118311
DTITLE=Earth, Wind and Fire - Definitive Collection
DYEAR=1995
DGENRE=R&B
TTITLE0=Shining Star
TTITLE1=That's The Way Of The World
TTITLE2=Sing A Song
TTITLE3=Getaway
TTITLE4=Fantasy
TTITLE5=Got To Get You Into My Life
TTITLE6=September
TTITLE7=Boogie Wonderland (With The Emotions)
TTITLE8=After The Love Has Gone
TTITLE9=Star
TTITLE10=Can't Let Go
TTITLE11=And Love Goes On
TTITLE12=Let's Groove
TTITLE13=Fall In Love With Me
TTITLE14=Magnetic
TTITLE15=System Of Survival
TTITLE16=Thinking Of You
EXTD=YEAR: 1995
EXTT0=
EXTT1=
EXTT2=
EXTT3=
EXTT4=
EXTT5=
EXTT6=
EXTT7=
EXTT8=
EXTT9=
EXTT10=
EXTT11=
EXTT12=
EXTT13=
EXTT14=
EXTT15=
EXTT16=
PLAYORDER=
